<svg id="Layer_1" xmlns:rdf="http://www.w3.org/1999/02/22-rdf-syntax-ns#" xmlns="http://www.w3.org/2000/svg" xml:space="preserve" height="50" viewBox="0 0 50 50" width="50" version="1.1" xmlns:cc="http://creativecommons.org/ns#" xmlns:dc="http://purl.org/dc/elements/1.1/"><metadata id="metadata9"><rdf:RDF><cc:Work rdf:about=""><dc:format>image/svg+xml</dc:format><dc:type rdf:resource="http://purl.org/dc/dcmitype/StillImage"/><dc:title/></cc:Work></rdf:RDF></metadata><path id="path3" d="m11.053,18.026h27.894c1.2831,0,2.3245-1.0414,2.3245-2.3245s-1.0414-2.3245-2.3245-2.3245h-27.895c-1.2831,0-2.3245,1.0414-2.3245,2.3245s1.0414,2.3245,2.3245,2.3245zm27.894,4.649h-27.894c-1.2831,0-2.3245,1.0414-2.3245,2.3245s1.0414,2.3245,2.3245,2.3245h27.894c1.2831,0,2.3245-1.0414,2.3245-2.3245s-1.0414-2.3245-2.3245-2.3245zm0,9.2982h-27.894c-1.2831,0-2.3245,1.0414-2.3245,2.3245s1.0414,2.3245,2.3245,2.3245h27.894c1.2831,0,2.3245-1.0414,2.3245-2.3245s-1.0414-2.3245-2.3245-2.3245z"/><rect id="rect2988" stroke-linejoin="round" stroke-dasharray="none" fill-opacity="0" ry="7.8076" height="47.056" width="47.056" stroke="#000" stroke-linecap="square" stroke-miterlimit="4" y="1.4719" x="1.4719" stroke-width="2.5"/></svg>
